<svg xmlns="http://www.w3.org/2000/svg" viewBox="0 0 137.77 137.76"><defs><style>.cls-1{fill:#fff;}</style></defs><title>arduino</title><g id="Layer_2" data-name="Layer 2"><g id="Layer_1-2" data-name="Layer 1"><path d="M137.77,68.88A68.89,68.89,0,1,1,68.89,0a68.89,68.89,0,0,1,68.88,68.88Z"/><path class="cls-1" d="M95.19,93.51a26.08,26.08,0,0,1-3.93-.29C80.31,91.66,73,83.8,68.89,77.75c-4.11,6-11.44,13.92-22.38,15.48a28.74,28.74,0,0,1-3.93.28,25.9,25.9,0,0,1-18-7.14,24.09,24.09,0,0,1,0-35,25.87,25.87,0,0,1,18-7.13,27.2,27.2,0,0,1,3.92.28C57.45,46.08,64.77,54,68.89,60,73,54,80.31,46.08,91.26,44.52a27.41,27.41,0,0,1,3.92-.28,25.87,25.87,0,0,1,18,7.13,24.11,24.11,0,0,1,0,35,25.91,25.91,0,0,1-18,7.14M73.74,68.88C75.88,73,82.18,83.11,92.49,84.59a20.79,20.79,0,0,0,2.7.19c9.26,0,16.8-7.13,16.8-15.91S104.45,53,95.18,53a18.68,18.68,0,0,0-2.68.19C82.18,54.63,75.88,64.8,73.74,68.88M42.59,53c-9.28,0-16.82,7.13-16.82,15.91s7.54,15.9,16.81,15.9a20.54,20.54,0,0,0,2.7-.19C55.59,83.11,61.9,73,64,68.88c-2.13-4.07-8.44-14.24-18.75-15.71a17.49,17.49,0,0,0-2.69-.2"/><path class="cls-1" d="M35.55,66.47H50.89v4.94H35.55Zm66.53,0H96.89v-5.2h-5v5.2H86.74v4.94h5.19v5.2h5v-5.2h5.19Z"/></g></g></svg>